# xmcd
#
# Track frame offsets:
#	150
#	34680
#	51321
#	70927
#	100325
#	115376
#	135222
#	150663
#	163927
#	200879
#	211029
#	217233
#
# Disc length: 3192 seconds
#
# Revision: 1
# Processed by: cddbd v1.5.1PL2 Copyright (c) Steve Scherf et al.
# Submitted via: EasyCDDAExtractor 8.0.2.1
#
DISCID=b40c760c
DTITLE=Alice Cooper - Beacon Theatre New York City 29-10-02 Disc 1
DYEAR=2002
DGENRE=Hard Rock
TTITLE0=Sex Death and Money - Brutal Planet - Dragontown - Sex Death and Money 
TTITLE1=Sanctuary
TTITLE2=Eighteen
TTITLE3=Welcome To My Nightmare - Go To Hell
TTITLE4=Billion Dollar Babies
TTITLE5=Feed My Frankenstein 
TTITLE6=Wicked Young Man 
TTITLE7=Nurse Rozetta
TTITLE8=Dead Babies - Steven - Ballad Of Dwight Fry
TTITLE9=I Love The Dead
TTITLE10=Devil's Food 
TTITLE11=Black Widow - Drum Solo
EXTD=
EXTT0=
EXTT1=
EXTT2=
EXTT3=
EXTT4=
EXTT5=
EXTT6=
EXTT7=
EXTT8=
EXTT9=
EXTT10=
EXTT11=
PLAYORDER=
